<svg width="99" height="76" viewBox="0 0 99 76" fill="none" xmlns="http://www.w3.org/2000/svg">
<path d="M74.49 44.6006L71.82 50.1006C71.3636 51.0392 70.6532 51.8307 69.7693 52.3857C68.8855 52.9408 67.8637 53.2368 66.82 53.2402H53.23L65 65.0107L82 48.0107L76.23 42.2305C75.5099 42.9074 74.9202 43.7108 74.49 44.6006Z" fill="#020202"/>
<path d="M64.9999 65.21L64.8999 65.1104L52.8999 53.1104H66.8099C67.8294 53.1077 68.8277 52.8201 69.692 52.2793C70.5562 51.7385 71.2518 50.9665 71.6999 50.0508L74.3699 44.5508C74.8116 43.6318 75.4222 42.8036 76.1699 42.1104L76.2699 42.0107L82.2699 48.0107L82.1699 48.1104L64.9999 65.21ZM53.5699 53.3809L64.9999 64.8105L81.8299 47.9805L76.2499 42.4004C75.5768 43.0572 75.022 43.8256 74.6099 44.6709L71.9499 50.1602C71.4776 51.1241 70.7449 51.9368 69.8347 52.5059C68.9246 53.0749 67.8733 53.3783 66.7999 53.3809H53.5699Z" fill="#FFF9FA"/>
<path d="M43.03 74.6006H6.14996C4.63027 74.6006 3.17279 73.9965 2.09821 72.9219C1.02362 71.8473 0.419922 70.3898 0.419922 68.8701V31.9902L43.03 74.6006Z" fill="#E72B87"/>
<path d="M44.04 75.0205H6.15002C4.51976 75.0179 2.95698 74.3686 1.8042 73.2158C0.651423 72.063 0.0026444 70.5004 0 68.8701V30.9707L44.04 75.0205ZM0.840027 33.0205V68.8809C0.84267 70.2883 1.40295 71.6366 2.39819 72.6318C3.39344 73.6271 4.74254 74.1878 6.15002 74.1904H42.01L0.840027 33.0205Z" fill="white"/>
<path d="M34.5803 66.1504L46.4402 53.2402H32.2902C31.1299 53.2392 29.9988 52.877 29.0543 52.2031C28.1097 51.5292 27.3987 50.5773 27.0203 49.4805L25.6602 45.4805C25.239 44.2963 24.5552 43.2232 23.6602 42.3408L17.5103 49.0605L34.5803 66.1504Z" fill="#020202"/>
<path d="M34.5898 66.3604L17.3398 49.1104L23.6898 42.1807L23.7898 42.29C24.6912 43.1868 25.3753 44.2784 25.7898 45.4805L27.1498 49.4307C27.5195 50.5004 28.213 51.4283 29.134 52.0859C30.0551 52.7436 31.158 53.0983 32.2898 53.1006H46.7298L34.5898 66.3604ZM17.7298 49.1006L34.5798 65.9502L46.0898 53.3809H32.2898C31.1009 53.3812 29.9416 53.0095 28.9736 52.3193C28.0055 51.6292 27.2771 50.6543 26.8898 49.5303L25.5298 45.5303C25.1385 44.4123 24.5148 43.3899 23.6998 42.5303L17.7298 49.1006Z" fill="#FFF9FA"/>
<path d="M98.02 31.9902V68.8701C98.0173 70.389 97.4128 71.8449 96.3387 72.9189C95.2647 73.993 93.8088 74.5979 92.2899 74.6006H55.4399L98.02 31.9902Z" fill="#E72B87"/>
<path d="M92.2899 75.0205H54.4399L98.4399 31.0205V68.9209C98.4241 70.5425 97.7696 72.0924 96.6182 73.2344C95.4669 74.3764 93.9116 75.018 92.2899 75.0205ZM56.4299 74.1807H92.2899C93.6974 74.178 95.0465 73.6173 96.0417 72.6221C97.037 71.6268 97.5973 70.2776 97.5999 68.8701V33.0107L56.4299 74.1807Z" fill="white"/>
<path d="M18.4397 6.45997H80.1697C81.5914 6.45865 82.9995 6.73809 84.3134 7.28125C85.6273 7.82442 86.8213 8.62112 87.8271 9.62598C88.8329 10.6308 89.6307 11.8243 90.1751 13.1377C90.7195 14.4511 90.9997 15.8585 90.9997 17.2803V37.3809L79.8497 40.2207C78.6878 40.5145 77.6043 41.0588 76.675 41.8154C75.7456 42.572 74.993 43.5225 74.4697 44.6006L71.7997 50.1006C71.3433 51.0392 70.6329 51.8307 69.749 52.3857C68.8652 52.9408 67.8434 53.2368 66.7997 53.2402H32.2897C31.1294 53.2392 29.9983 52.877 29.0537 52.2031C28.1092 51.5292 27.3982 50.5773 27.0197 49.4805L25.6597 45.4805C25.2019 44.1482 24.4099 42.9561 23.3593 42.0176C22.3088 41.0791 21.0349 40.4254 19.6597 40.1201L7.65967 37.4707V17.2305C7.67284 14.3764 8.81314 11.6432 10.8322 9.62598C12.8513 7.60878 15.5856 6.47049 18.4397 6.45997Z" fill="#E72B87"/>
<path d="M66.7999 54.4307H32.2899C30.8827 54.4302 29.5107 53.9903 28.3652 53.1729C27.2198 52.3554 26.3579 51.2007 25.9 49.8701L24.5399 45.8701C24.1433 44.7299 23.4621 43.7105 22.5609 42.9072C21.6596 42.104 20.5682 41.5436 19.39 41.2803L7.38995 38.6309C7.12627 38.5718 6.89052 38.4247 6.7215 38.2139C6.55247 38.003 6.46024 37.7409 6.45996 37.4707V17.2305C6.45996 14.0479 7.72423 10.9956 9.97467 8.74512C12.2251 6.49468 15.2774 5.23047 18.46 5.23047H80.1899C83.3725 5.23047 86.4248 6.49468 88.6752 8.74512C90.9257 10.9956 92.1899 14.0479 92.1899 17.2305V37.3301C92.189 37.5945 92.1001 37.8513 91.9371 38.0596C91.7741 38.2678 91.5464 38.416 91.2899 38.4805L80.14 41.3203C79.1453 41.5702 78.2177 42.0356 77.4229 42.6836C76.628 43.3316 75.9851 44.1464 75.5399 45.0703L72.8699 50.5703C72.3193 51.7162 71.4589 52.685 70.3862 53.3672C69.3134 54.0494 68.0711 54.418 66.7999 54.4307ZM8.79993 36.5703L19.8799 39.0107C21.4534 39.3631 22.911 40.111 24.1149 41.1836C25.3187 42.2562 26.2291 43.6181 26.7599 45.1406L28.1199 49.0908C28.4108 49.9622 28.9677 50.7196 29.7122 51.2578C30.4567 51.796 31.3513 52.0879 32.27 52.0908H66.78C67.6031 52.0877 68.4089 51.8544 69.1068 51.418C69.8046 50.9816 70.3668 50.3588 70.7299 49.6201L73.4 44.1201C73.998 42.8883 74.8584 41.8023 75.9209 40.9385C76.9834 40.0747 78.222 39.4541 79.5499 39.1201L89.8099 36.5V17.3301C89.8073 14.7751 88.7905 12.3262 86.9829 10.5205C85.1753 8.71482 82.7249 7.70019 80.1699 7.7002H18.4399C15.885 7.70019 13.4345 8.71482 11.627 10.5205C9.81939 12.3262 8.80258 14.7751 8.79993 17.3301V36.5703Z" fill="white"/>
<path d="M91.6901 0.310547H67.8101L73.9501 6.45996H80.1901C81.6118 6.45865 83.0198 6.73808 84.3337 7.28125C85.6476 7.82442 86.8416 8.62112 87.8474 9.62598C88.8532 10.6308 89.6511 11.8243 90.1955 13.1377C90.7399 14.4511 91.0201 15.8585 91.0201 17.2803V23.5303L97.0801 29.5908V5.69043C97.0774 4.26265 96.5084 2.8944 95.4979 1.88574C94.4873 0.877083 93.1178 0.310544 91.6901 0.310547Z" fill="#020202"/>
<path d="M97.3699 30.29L90.7299 23.6504V17.2803C90.7246 14.4874 89.6121 11.8108 87.6364 9.83691C85.6606 7.86302 82.9827 6.75264 80.1899 6.75H73.8299L67.1099 0.0205078H91.6899C93.1972 0.0231569 94.6419 0.623635 95.7068 1.69043C96.7718 2.75722 97.3699 4.20261 97.3699 5.70996V30.29ZM91.3099 23.4102L96.7899 28.8906V5.69043C96.7899 4.3369 96.2529 3.03908 95.2968 2.08105C94.3406 1.12303 93.0434 0.582727 91.6899 0.580078H68.5099L74.0699 6.15039H80.1899C83.1365 6.15303 85.9619 7.32456 88.0464 9.40723C90.131 11.4899 91.3046 14.3141 91.3099 17.2607V23.4102Z" fill="white"/>
<path d="M7.62994 17.2803C7.62994 14.4124 8.76855 11.6617 10.7955 9.63281C12.8225 7.60396 15.572 6.46261 18.4399 6.45996H23.53L29.6699 0.310547H5.80994C4.38562 0.31583 3.02129 0.88449 2.01508 1.89258C1.00886 2.90067 0.442574 4.2661 0.439941 5.69043V29.5703L7.64996 22.3604L7.62994 17.2803Z" fill="#020202"/>
<path d="M0.129883 30.29V5.69043C0.12988 4.18308 0.727988 2.73769 1.79291 1.6709C2.85783 0.604103 4.30253 0.00264912 5.80988 0H30.4399L23.7199 6.73047H18.4399C15.647 6.73311 12.9692 7.84348 10.9934 9.81738C9.01763 11.7913 7.9052 14.4679 7.8999 17.2607V22.4805L0.129883 30.29ZM5.80988 0.600586C4.45635 0.603235 3.15915 1.14256 2.203 2.10059C1.24685 3.05861 0.709897 4.35644 0.7099 5.70996V28.8906L7.3399 22.2607V17.2607C7.35046 14.321 8.52362 11.5045 10.6033 9.42676C12.6829 7.34898 15.5001 6.1788 18.4399 6.1709H23.4399L28.9999 0.600586H5.80988Z" fill="white"/>
<path d="M54.02 39.3408L51.4 35.1602C51.1877 34.8213 50.8929 34.5423 50.543 34.3486C50.1932 34.155 49.7999 34.0537 49.4 34.0537C49.0002 34.0537 48.6069 34.155 48.257 34.3486C47.9072 34.5423 47.6123 34.8213 47.4 35.1602L44.78 39.3408C44.6743 39.5072 44.6152 39.6984 44.6089 39.8955C44.6027 40.0926 44.6496 40.2882 44.7447 40.4609C44.8398 40.6337 44.9795 40.7777 45.1494 40.8779C45.3192 40.9781 45.5128 41.0306 45.71 41.0303H53.08C53.2781 41.0324 53.473 40.9813 53.6442 40.8818C53.8155 40.7823 53.9567 40.6379 54.053 40.4648C54.1492 40.2918 54.197 40.0964 54.1912 39.8984C54.1854 39.7005 54.1263 39.508 54.02 39.3408Z" fill="white"/>
<path d="M30.8398 24.1201L33.7799 21.1807C34.0556 20.8763 34.2038 20.477 34.1937 20.0664C34.1836 19.6558 34.0159 19.265 33.7255 18.9746C33.4351 18.6842 33.0441 18.5169 32.6335 18.5068C32.223 18.4967 31.8242 18.6451 31.5198 18.9209L28.5798 21.8604L17.6698 10.9502C17.3714 10.6505 16.9662 10.4814 16.5433 10.4805C16.1204 10.4795 15.7145 10.6469 15.4148 10.9453C15.1151 11.2437 14.9463 11.6494 14.9453 12.0723C14.9444 12.4952 15.1114 12.9005 15.4098 13.2002L26.3298 24.1201L21.5798 28.8604C21.283 29.1616 21.1166 29.5674 21.1166 29.9902C21.1166 30.4131 21.283 30.8189 21.5798 31.1201C21.8823 31.4146 22.2877 31.5801 22.7098 31.5801C23.1319 31.5801 23.5374 31.4146 23.8398 31.1201L28.5798 26.3701L35.6398 33.4404C35.9422 33.7352 36.3476 33.9002 36.7698 33.9004C37.086 33.9027 37.3956 33.8103 37.6592 33.6357C37.9228 33.4612 38.1283 33.2129 38.2496 32.9209C38.3709 32.629 38.4024 32.307 38.3401 31.9971C38.2778 31.6871 38.1245 31.4031 37.8998 31.1807L30.8398 24.1201Z" fill="white"/>
<path d="M83.71 10.9502C83.563 10.8011 83.3879 10.6833 83.1948 10.6025C83.0016 10.5218 82.7944 10.4795 82.585 10.4795C82.3757 10.4795 82.1684 10.5218 81.9753 10.6025C81.7822 10.6833 81.607 10.8011 81.46 10.9502L70.54 21.8604L67.61 18.9209C67.3056 18.6451 66.9069 18.4967 66.4963 18.5068C66.0857 18.5169 65.6947 18.6842 65.4043 18.9746C65.1139 19.265 64.9463 19.6558 64.9362 20.0664C64.9261 20.477 65.0742 20.8763 65.35 21.1807L68.29 24.1201L61.22 31.1807C60.9953 31.4031 60.842 31.6871 60.7797 31.9971C60.7174 32.307 60.7489 32.6289 60.8702 32.9209C60.9915 33.2128 61.1971 33.4612 61.4606 33.6357C61.7242 33.8103 62.0338 33.9027 62.35 33.9004C62.5593 33.9019 62.767 33.8621 62.9609 33.7832C63.1548 33.7043 63.3312 33.5877 63.48 33.4404L70.54 26.3701L75.29 31.1201C75.5897 31.4185 75.9956 31.5859 76.4185 31.585C76.8414 31.584 77.2466 31.4149 77.545 31.1152C77.8434 30.8155 78.0105 30.4102 78.0095 29.9873C78.0086 29.5644 77.8397 29.1587 77.54 28.8604L72.8 24.1201L83.71 13.2002C83.8591 13.0532 83.9774 12.8787 84.0582 12.6855C84.139 12.4924 84.1806 12.2845 84.1806 12.0752C84.1806 11.8659 84.139 11.6589 84.0582 11.4658C83.9774 11.2727 83.8591 11.0972 83.71 10.9502Z" fill="white"/>
<path d="M43.22 47.0303H40.46V52.3408H43.22V47.0303Z" fill="white"/>
<path d="M60.2 47.0303H57.4399V52.3408H60.2V47.0303Z" fill="white"/>
</svg>
