<svg width="75" height="61" viewBox="0 0 75 61" fill="none" xmlns="http://www.w3.org/2000/svg">
<path d="M0 53.9879C8.08047 54.9121 16.1999 52.6167 22.6001 47.5982C19.4085 47.5117 16.3216 46.441 13.7618 44.5328C11.2021 42.6246 9.29442 39.972 8.30005 36.938C10.5813 37.3717 12.9317 37.2757 15.17 36.6578C13.0164 36.2109 10.9838 35.3063 9.21021 34.0054C7.43658 32.7045 5.96326 31.0377 4.89001 29.1177C3.54787 26.7793 2.85723 24.1243 2.89001 21.4283C5.01897 22.6067 7.39794 23.2606 9.83008 23.3375C7.73537 21.9379 6.01865 20.0433 4.8324 17.8209C3.64614 15.5984 3.02701 13.1175 3.03003 10.5982C2.9862 7.89451 3.67746 5.22971 5.03003 2.88825C8.90793 7.6137 13.7295 11.4769 19.1864 14.232C24.6433 16.9871 30.6153 18.5735 36.7201 18.8882C36.7201 18.6082 36.6301 18.3778 36.5801 18.1578C36.294 16.6108 36.2467 15.0296 36.4401 13.4683C36.8444 10.2498 38.2554 7.24139 40.4716 4.87262C42.6877 2.50385 45.5956 0.89545 48.78 0.277894C49.8528 0.06323 50.9466 -0.0278729 52.04 0.00738659C56.0562 0.0936332 59.8761 1.76166 62.67 4.64801C62.7258 4.72106 62.8031 4.77443 62.891 4.80133C62.9789 4.82823 63.0729 4.82673 63.16 4.79743C66.4132 4.12078 69.5363 2.92549 72.41 1.25739C72.4536 1.22405 72.5055 1.20372 72.5601 1.19782C72.0065 2.93946 71.135 4.56355 69.99 5.98786C68.8446 7.40738 67.4688 8.62394 65.92 9.58746C68.9136 9.24389 71.841 8.46614 74.61 7.27789L74.51 7.42829C72.5277 10.3417 70.0623 12.8949 67.2201 14.9781C67.1508 15.0199 67.0951 15.0802 67.0596 15.1529C67.0241 15.2256 67.0103 15.3079 67.02 15.3882C67.02 16.5482 67.02 17.6982 67.02 18.8482C67.02 19.5149 66.98 20.1815 66.9 20.8482C66.8 21.7682 66.68 22.6782 66.55 23.5982C66.2907 25.3369 65.92 27.0565 65.4401 28.7476C63.8044 34.6422 60.9949 40.1462 57.1801 44.9283C52.9158 50.3265 47.3716 54.5743 41.05 57.2877C38.4197 58.4296 35.6737 59.2844 32.86 59.8375C31.54 60.0975 30.2 60.2983 28.86 60.4683C26.4715 60.7566 24.0637 60.8495 21.66 60.7476C20.15 60.6876 18.66 60.5475 17.15 60.3375C13.0295 59.7427 9.01531 58.5609 5.22998 56.8277C3.43993 56.0027 1.70624 55.0603 0.0400391 54.0074L0 53.9879Z" fill="white"/>
</svg>
